# xmcd
#
# Track frame offsets: 
#        150
#        18952
#        38205
#        54696
#        70704
#        90391
#        110856
#        125503
#        141701
#        165771
#        182854
#        203410
#        218725
#
# Disc length: 3157 seconds
#
# Revision: 0
# Processed by: cddbd v1.5.2PL0 Copyright (c) Steve Scherf et al.
# Submitted via: ExactAudioCopy v1.3
#
DISCID=b50c530d
DTITLE=ORBO and The Longshots - Seven
DYEAR=2009
DGENRE=Blues
TTITLE0=Long Enough
TTITLE1=Playgirl
TTITLE2=The Second Time Around
TTITLE3=Loser
TTITLE4=Dance With You
TTITLE5=Lazy Dog
TTITLE6=Seven
TTITLE7=Wannabe American
TTITLE8=Long Delay
TTITLE9=We'll Meet Again
TTITLE10=One Last Time
TTITLE11=Red Love
TTITLE12=Wow Wow Wow
EXTD=
EXTT0=
EXTT1=
EXTT2=
EXTT3=
EXTT4=
EXTT5=
EXTT6=
EXTT7=
EXTT8=
EXTT9=
EXTT10=
EXTT11=
EXTT12=
PLAYORDER=
